<svg xmlns="http://www.w3.org/2000/svg" viewBox="0 0 25 25"><circle cx="16.5" cy="11.5" r="1" fill="#9abadb"/><polygon fill="#9A9494" points="14.5 15.5 14.5 22.5 11.5 22.5 11.5 15.5 12.5 15.5 14.5 15.5"/><path fill="#6246EA" d="M16.5,12.5a1,1,0,1,0-1-1A1,1,0,0,0,16.5,12.5Zm4-3v6h-8v-6a4,4,0,0,0-4-4h8A4,4,0,0,1,20.5,9.5Z"/><path fill="#C0C0C0" d="M12.5,9.5v6h-8v-6a4,4,0,0,1,8,0Z"/><path fill="#16afd3" d="M16.5,13A1.5,1.5,0,1,1,18,11.5,1.5,1.5,0,0,1,16.5,13Zm0-2a.5.5,0,1,0,.5.5A.5.5,0,0,0,16.5,11Z"/><path fill="#16afd3" d="M16.5 11a.5.5 0 0 1-.5-.5v-8a.5.5 0 0 1 .5-.5h2a.5.5 0 0 1 0 1H17v7.5A.5.5 0 0 1 16.5 11zM9.5 12h-2a.5.5 0 0 1 0-1h2a.5.5 0 0 1 0 1zM9.5 14h-2a.5.5 0 0 1 0-1h2a.5.5 0 0 1 0 1z"/></svg>